{"title":"Sleeping.Beauty.2014.480p.BRRip.XviD.AC3-N3kr4","uid":10345966,"size":2005480205,"categoryP":"video","categoryS":"hd___movies","magnet":"?xt=urn:btih:80cca4fc182b87913636ecc4bd2bc7ac0b36266d&amp;dn=Sleeping.Beauty.2014.480p.BRRip.XviD.AC3-N3kr4&amp;tr=udp%3A%2F%2Ftracker.openbittorrent.com%3A80&amp;tr=udp%3A%2F%2Fopen.demonii.com%3A1337&amp;tr=udp%3A%2F%2Ftracker.coppersurfer.tk%3A6969&amp;tr=udp%3A%2F%2Fexodus.desync.com%3A6969","seeders":1,"leechers":0,"uploader":"Falcon.G13","files":2,"time":1402604343,"description":" &lt;a href=&quot;http://www.imdb.com/title/tt3343136/&quot; rel=&quot;nofollow&quot; target=&quot;_NEW&quot;&gt;http://www.imdb.com/title/tt3343136/&lt;/a&gt;\n &lt;a href=&quot;\nhttp://i.imgur.com/7aCom2k.jpg&quot; rel=&quot;nofollow&quot; target=&quot;_NEW&quot;&gt;\nhttp://i.imgur.com/7aCom2k.jpg&lt;/a&gt; &lt;a href=&quot;\nhttp://i.imgur.com/45YnCU9.jpg&quot; rel=&quot;nofollow&quot; target=&quot;_NEW&quot;&gt;\nhttp://i.imgur.com/45YnCU9.jpg&lt;/a&gt; &lt;a href=&quot;\nhttp://i.imgur.com/i2yV74X.jpg&quot; rel=&quot;nofollow&quot; target=&quot;_NEW&quot;&gt;\nhttp://i.imgur.com/i2yV74X.jpg&lt;/a&gt; &lt;a href=&quot;\nhttp://i.imgur.com/hhyhrTg.jpg&quot; rel=&quot;nofollow&quot; target=&quot;_NEW&quot;&gt;\nhttp://i.imgur.com/hhyhrTg.jpg&lt;/a&gt; &lt;a href=&quot;\nhttp://i.imgur.com/C8OMltg.jpg&quot; rel=&quot;nofollow&quot; target=&quot;_NEW&quot;&gt;\nhttp://i.imgur.com/C8OMltg.jpg&lt;/a&gt; &lt;a href=&quot;\nhttp://i.imgur.com/rU9HpFM.jpg&quot; rel=&quot;nofollow&quot; target=&quot;_NEW&quot;&gt;\nhttp://i.imgur.com/rU9HpFM.jpg&lt;/a&gt; &lt;a href=&quot;\nhttp://i.imgur.com/qas64X5.jpg&quot; rel=&quot;nofollow&quot; target=&quot;_NEW&quot;&gt;\nhttp://i.imgur.com/qas64X5.jpg&lt;/a&gt;\n\nGeneral\nComplete name : Sleeping.Beauty.2014.480p.BRRip.XviD.AC3-N3kr4.avi\nFormat : AVI\nFormat/Info : Audio Video Interleave\nFormat profile : OpenDML\nFile size : 1.87 GiB\nDuration : 1h 28mn\nOverall bit rate : 3 012 Kbps\nWriting application : Lavf55.7.100\n\nVideo\nID : 0\nFormat : MPEG-4 Visual\nFormat profile : Advanced Simple@L1\nFormat settings, BVOP : No\nFormat settings, QPel : No\nFormat settings, GMC : No warppoints\nFormat settings, Matrix : Default (H.263)\nCodec ID : XVID\nCodec ID/Hint : XviD\nDuration : 1h 28mn\nBit rate : 2 361 Kbps\nWidth : 720 pixels\nHeight : 400 pixels\nDisplay aspect ratio : 16:9\nFrame rate : 23.976 fps\nColor space : YUV\nChroma subsampling : 4:2:0\nBit depth : 8 bits\nScan type : Progressive\nCompression mode : Lossy\nBits/(Pixel*Frame) : 0.342\nStream size : 1.46 GiB (78%)\nWriting library : Lavc55.12.100\n\nAudio\nID : 1\nFormat : AC-3\nFormat/Info : Audio Coding 3\nMode extension : CM (complete main)\nFormat settings, Endianness : Big\nCodec ID : 2000\nDuration : 1h 28mn\nBit rate mode : Constant\nBit rate : 640 Kbps\nChannel(s) : 6 channels\nChannel positions : Front: L C R, Side: L R, LFE\nSampling rate : 48.0 KHz\nBit depth : 16 bits\nCompression mode : Lossy\nStream size : 406 MiB (21%)\nAlignment : Aligned on interleaves\nInterleave, duration : 32 ms (0.77 video frame)\nInterleave, preload duration : 32 ms","torrent":{"xt":"urn:btih:80cca4fc182b87913636ecc4bd2bc7ac0b36266d","amp;dn":"Sleeping.Beauty.2014.480p.BRRip.XviD.AC3-N3kr4","amp;tr":["udp%3A%2F%2Ftracker.openbittorrent.com%3A80","udp%3A%2F%2Fopen.demonii.com%3A1337","udp%3A%2F%2Ftracker.coppersurfer.tk%3A6969","udp%3A%2F%2Fexodus.desync.com%3A6969"],"infoHash":"80cca4fc182b87913636ecc4bd2bc7ac0b36266d","infoHashBuffer":{"type":"Buffer","data":[128,204,164,252,24,43,135,145,54,54,236,196,189,43,199,172,11,54,38,109]},"announce":[],"urlList":[]}}